<svg width="22" height="22" viewBox="0 0 22 22" fill="none" xmlns="http://www.w3.org/2000/svg">
<g clip-path="url(#clip0_275_2461)">
<path d="M18.5719 4.00567C17.1733 3.36217 15.6742 2.88826 14.1065 2.61692C14.0782 2.61142 14.0498 2.62517 14.0343 2.65084C13.8414 2.99459 13.6275 3.44376 13.4785 3.79576C11.792 3.54276 10.1146 3.54276 8.46284 3.79576C8.31384 3.43551 8.09172 2.99459 7.89884 2.65084C7.8833 2.62517 7.85497 2.61234 7.82663 2.61692C6.25986 2.88734 4.76073 3.36126 3.36124 4.00567C3.34935 4.01026 3.33838 4.01942 3.33198 4.03042C0.488211 8.29109 -0.291519 12.4473 0.0905759 16.5521C0.0924042 16.5723 0.103373 16.5915 0.118913 16.6034C1.99557 17.9858 3.8128 18.8245 5.59713 19.38C5.62547 19.3892 5.65563 19.3782 5.67392 19.3543C6.09623 18.7768 6.47193 18.1673 6.79461 17.5265C6.8138 17.4889 6.79552 17.444 6.75621 17.4293C6.1593 17.202 5.59165 16.9252 5.04501 16.6117C5.00205 16.586 4.99839 16.5246 5.0377 16.4943C5.15288 16.4082 5.26805 16.3183 5.37775 16.2276C5.39786 16.2111 5.42528 16.2074 5.44905 16.2184C9.03964 17.862 12.9264 17.862 16.474 16.2184C16.4978 16.2074 16.5252 16.2102 16.5463 16.2276C16.6559 16.3183 16.7711 16.4091 16.8872 16.4953C16.9274 16.5246 16.9247 16.5869 16.8808 16.6126C16.3342 16.9325 15.7665 17.2038 15.1687 17.4293C15.1294 17.444 15.1129 17.4898 15.1312 17.5274C15.4603 18.1673 15.8369 18.7768 16.251 19.3543C16.2684 19.3791 16.2994 19.3892 16.3278 19.3809C18.1203 18.8245 19.9385 17.9858 21.8142 16.6043C21.8307 16.5924 21.8407 16.5741 21.8426 16.5539C22.2996 11.8083 21.0765 7.68609 18.5993 4.03226C18.5948 4.01942 18.5838 4.01026 18.5719 4.00567ZM7.33118 14.0533C6.2498 14.0533 5.35946 13.0578 5.35946 11.8358C5.35946 10.6139 6.23243 9.61842 7.33118 9.61842C8.43816 9.61842 9.32027 10.6222 9.3029 11.8358C9.3029 13.0587 8.42902 14.0533 7.33118 14.0533ZM14.6212 14.0533C13.5407 14.0533 12.6494 13.0578 12.6494 11.8358C12.6494 10.6139 13.5224 9.61842 14.6212 9.61842C15.7281 9.61842 16.6102 10.6222 16.5929 11.8358C16.5929 13.0587 15.7281 14.0533 14.6212 14.0533Z" fill="#F5F7F8"/>
</g>
<defs>
<clipPath id="clip0_275_2461">
<rect width="21.9385" height="22" fill="white"/>
</clipPath>
</defs>
</svg>
