<svg width="22" height="22" viewBox="0 0 22 22" fill="none" xmlns="http://www.w3.org/2000/svg">
<g clip-path="url(#clip0_275_2464)">
<path d="M12.3742 11C12.3742 14.4503 9.60448 17.2471 6.18665 17.2471C2.76973 17.2471 0 14.4503 0 11C0 7.54968 2.76973 4.75293 6.18756 4.75293C9.60448 4.75293 12.3742 7.54968 12.3742 11Z" fill="#F5F7F8"/>
<path d="M19.1624 11C19.1624 14.2478 17.7775 16.8805 16.069 16.8805C14.3606 16.8805 12.9757 14.2478 12.9757 11C12.9757 7.7523 14.3606 5.11963 16.069 5.11963C17.7766 5.11963 19.1624 7.7523 19.1624 11Z" fill="#F5F7F8"/>
<path d="M21.9385 11C21.9385 13.9095 21.4513 16.269 20.8507 16.269C20.2502 16.269 19.7629 13.9104 19.7629 11C19.7629 8.08954 20.2502 5.73096 20.8507 5.73096C21.4513 5.73096 21.9385 8.09046 21.9385 11Z" fill="#F5F7F8"/>
</g>
<defs>
<clipPath id="clip0_275_2464">
<rect width="21.9385" height="22" fill="white"/>
</clipPath>
</defs>
</svg>
